<svg xmlns="http://www.w3.org/2000/svg" width="14.79mm" height="14.06mm" viewBox="0 0 41.94 39.87">
    <g id="Omg">
        <g id="Calque_25" data-name="Calque 25">
            <path d="M40.5,11.71C36.64,1.86,24.57-2.13,15,1.1a1.43,1.43,0,0,0-.68.47A21,21,0,0,0,.47,16.31c-1.89,8.09,2.08,17.37,9.4,21.38S26.77,39.77,33.28,35A21.76,21.76,0,0,0,41.2,24.24,19.32,19.32,0,0,0,40.5,11.71Zm-.84,9.45A17.81,17.81,0,0,1,34,31.69c-5.2,4.95-13.11,7.53-20.09,5.2A17.52,17.52,0,0,1,2.31,19.59C2.76,11,9.84,3.74,18.34,2.66a1.26,1.26,0,0,0,.44-.14c6.82-.74,13.91,1.7,17.86,7.62A16.52,16.52,0,0,1,39.66,21.16Z"/>
            <g id="Calque_26" data-name="Calque 26">
                <path d="M30.66,21.65a3.39,3.39,0,0,0-2.47-.87,2.9,2.9,0,0,0-2.76-1.47,2.53,2.53,0,0,0-1.05-1.4,2.64,2.64,0,0,0-1.05-.39q1.88-2.58,3.49-5.33C27.88,10.39,29,7,25.87,6.55,22.92,6.11,21.3,9.34,20,11.4c-1.41,2.23-2.74,4.5-4,6.8a4.57,4.57,0,0,0-2.14-2.54,3.67,3.67,0,0,0-4.54.88c-1.15,1.54-.6,3.65,0,5.29a13,13,0,0,0,3.45,5.05c.9.83,2.73-.69,1.74-1.59A11.06,11.06,0,0,1,11,19c-.19-1.33.41-2.21,1.74-1.41,1.11.66,1.61,2.2,2,3.36.24.82,1.46.72,1.84.05q1.83-3.26,3.78-6.42,1-1.59,2-3.15c.54-.84,1.23-2.39,2.19-2.81,1.52-.67,1.47,1.09,1,2a22.68,22.68,0,0,1-1.9,3.07c-1.38,2-2.84,3.84-4.38,5.69-1,1.16.92,2,1.8,1.13.37-.34.89-.89,1.44-.79.13,0,.71.44.68.63a1.68,1.68,0,0,0-.24.29c-.83,1.28.93,2.1,1.85,1.17a2.65,2.65,0,0,0,.21-.26h0v0a2.92,2.92,0,0,1,.46.13.68.68,0,0,1,.42.69c-.11,1,1.12,1.25,1.82.83s1.5.79,1.5,1.42c0,1.26-1.07,2.18-2.05,2.78-2.17,1.31-4.4,2.27-6.19,4.15C19.7,32.79,21.4,34,22.59,33a27.55,27.55,0,0,1,5.12-3.39,7.94,7.94,0,0,0,3.72-3.72A3.66,3.66,0,0,0,30.66,21.65Z"/>
            </g>
        </g>
    </g>
</svg>
