<svg id="Calque_1" data-name="Calque 1" xmlns="http://www.w3.org/2000/svg" viewBox="0 0 50.24 40.39">
    <path d="M16.74,12.15s0,0,0,.17c.28-.54,1-.66,1.32-1.36l.1,0,.2-.42c.09.1.21.25,0,.39,1-.94,1.89-1.92,2.81-2.91l.36-.39A2.52,2.52,0,0,0,22.05,7a2.38,2.38,0,0,0,.07-1.72,2.53,2.53,0,0,0-1-1.29,2.47,2.47,0,0,0-1.59-.45,2.38,2.38,0,0,0-1.45.71L17.39,5,16,6.51c-.93,1-1.88,2-2.85,3l0-.23-.58.93a.2.2,0,0,1,0-.17,30.38,30.38,0,0,0-2.73,3.08c0-.05,0-.28-.18-.19-.4,1-1.4.88-1.19,1.73-.06,0-.2-.07-.17-.19-.83,1.11-1.7,2.19-2.6,3.26l-1.35,1.6a5.66,5.66,0,0,0-.73.92,2.36,2.36,0,0,0-.3,1.45A2.22,2.22,0,0,0,4.46,23c1.45,1.28,2.63,3,4.27,4.1l-.1.08C11.09,29.09,13,31.76,15.37,34c.9,1,1.64,1.5,2.59,2.44l-.09.14a5.07,5.07,0,0,1,.72.49,2,2,0,0,0,.82.41,1.82,1.82,0,0,0,1.75-.64,1.61,1.61,0,0,0,.08-2,5.15,5.15,0,0,0-1.42-1.17l.27,0c-.47,0-.86-1-1.18-.63l-.1-.11-.11-.27a2.23,2.23,0,0,1-.31-.15l-1.56-1.57A5.29,5.29,0,0,0,15.2,29.2h.19a3.34,3.34,0,0,1-1.1-1c.06,0,.07,0,.18,0-.72-1.52-2.48-2.45-3.59-3.62a2,2,0,0,0,.41.05,4.15,4.15,0,0,1-1.14-.95l-.51-.56,0,0s0,0,0,0h.27l.3,0,.17.13a.76.76,0,0,1,.18-.18l.37.25a11.81,11.81,0,0,0,1.54-.1c.69-.05,1.37-.11,2.06-.12l-.07.22c1.28-.4,2.74,0,4.1-.17l-.09.08c2.5.06,4.87-.12,7.29-.28h19a1.5,1.5,0,0,0,.16-3c0-.16,0-.3-.27-.44l-.11.26c-.17-.26-.13-.13-.19-.33-.68,0-.77-.42-1.25-.58,0,0,0,0,0,0-.33.31-.79.13-1,.08l-.1-.15c-.16-.31-.77.61-.57.08C40,19,38.46,19,36.93,19c-.22.2-1.18,0-.84.37a3.1,3.1,0,0,0-2-.54s0-.09.1-.07c-.82-.58-1,.53-1.75-.17-.12.49-1.39-.16-1.83.42q-.15-.16-.09-.3c-1.39,0-2.92-.19-4.09-.21-1,.44-2.43-.2-3.29.41a7.22,7.22,0,0,0-2.87-.14l.1-.08a9.62,9.62,0,0,0-3.3.45c-.34-.58-.82-.46-1.31-.65-.75.27-2.27.19-3.41.44-.09-.14-.33-.11-.55-.1,0,0-.11,0,0-.18a2,2,0,0,1-1.09.38c-.09,0-.05,0,0,0l.05-.08a1.67,1.67,0,0,1,.13-.2,5.06,5.06,0,0,1,.41-.47l.73-.72C12.31,17.16,16.36,12.66,16.74,12.15Zm27,7.72h-.5A1.4,1.4,0,0,1,43.76,19.87Zm-3.36,0h-.34A.65.65,0,0,1,40.4,19.87Z"/>
    <path d="M43.12,18.79c0-.05-.12,0-.18-.05Z"/>
</svg>
