<?xml version="1.0" encoding="utf-8"?>
<!-- Generator: Adobe Illustrator 25.2.2, SVG Export Plug-In . SVG Version: 6.00 Build 0)  -->
<svg version="1.1" xmlns="http://www.w3.org/2000/svg" xmlns:xlink="http://www.w3.org/1999/xlink" x="0px" y="0px"
	 viewBox="0 0 17.3 20.6" style="enable-background:new 0 0 17.3 20.6;" xml:space="preserve">
<style type="text/css">
	.st0{fill:#FFFFFF;}
</style>
<g id="Login">
	<g id="Calque_1">
	</g>
	<g id="Calque_3">
		<g id="Calque_4">
		</g>
	</g>
	<g id="Calque_2">
	</g>
</g>
<g id="Le_saviez-vous">
	<g id="Calque_8">
	</g>
	<g id="Calque_9">
	</g>
</g>
<g id="Règles">
	
		<image style="display:none;overflow:visible;opacity:0.302;" width="390" height="844" xlink:href="D6843B4C07882312.png"  transform="matrix(0.6273 0 0 0.6273 -217.0236 -426.3218)">
	</image>
	<g id="Calque_11">
	</g>
	<g id="Calque_12">
		<path d="M17.3,13.1c-0.1-0.7-0.9-0.8-1.4-0.6c-0.4,0.1-0.8,0.4-1.1,0.6c-1.1,0.8-2.2,1.6-3.3,2.5c-0.5,0.4-1,0.9-1.5,1.3
			c0.4-5.4,0.2-10.9-0.4-16.2C9.4-0.7,7,0.2,7.2,1.5c0.4,5.1,0.6,10.1,0.5,15.2C7.1,16.1,6.6,15.6,6,15c-1.2-1.3-2.5-2.7-4-3.7
			c-0.5-0.4-1.2-0.3-1.6,0.2c-0.4,0.3-0.6,1.1-0.1,1.5C1.7,14,3,15.4,4.2,16.7c0.6,0.7,1.2,1.3,1.9,2c0.3,0.3,0.7,0.7,1,1
			c0.4,0.4,0.9,0.8,1.4,0.9c0.4,0.1,0.7,0,1-0.2c0.2-0.1,0.3-0.2,0.5-0.3c0.9-0.9,1.9-1.8,2.9-2.6c0.5-0.4,1-0.8,1.5-1.2
			c0.2-0.2,0.5-0.4,0.7-0.6c0.1-0.1,0.2-0.2,0.4-0.3c0.1-0.1,0.1-0.1,0.2-0.2c0,0,0,0,0,0C16.3,14.7,17.5,14.1,17.3,13.1z"/>
	</g>
</g>
<g id="Calque_13">
</g>
</svg>
