<svg id="Calque_1" data-name="Calque 1" xmlns="http://www.w3.org/2000/svg" viewBox="0 0 49.54 39.47">
    <path d="M32.08,28.36c0-.05,0-.05,0-.16-.28.54-1.06.66-1.32,1.36l-.1,0-.21.41c-.08-.1-.21-.24,0-.38-1,.94-1.89,1.91-2.82,2.9l-.36.39a2.77,2.77,0,0,0-.47.73,2.33,2.33,0,0,0-.08,1.72,2.64,2.64,0,0,0,1,1.29,2.42,2.42,0,0,0,1.58.44,2.28,2.28,0,0,0,1.45-.71l.71-.77L32.82,34c.94-1,1.88-2,2.85-3l-.05.24.58-.93c0,.05,0,.1,0,.16A29.44,29.44,0,0,0,39,27.37c0,.05,0,.28.17.19.41-1,1.4-.87,1.19-1.72a.17.17,0,0,1,.18.18c.82-1.1,1.7-2.19,2.59-3.26l1.35-1.59a6.29,6.29,0,0,0,.73-.93,2.4,2.4,0,0,0,.31-1.44,2.28,2.28,0,0,0-1.12-1.29c-1.45-1.28-2.63-3-4.27-4.09l.1-.08c-2.47-1.92-4.42-4.59-6.75-6.79-.9-1-1.64-1.51-2.59-2.44L30.94,4a5,5,0,0,1-.71-.5,2.15,2.15,0,0,0-.83-.41,1.82,1.82,0,0,0-1.74.65,1.6,1.6,0,0,0-.09,2A5,5,0,0,0,29,6.9l-.27,0c.48,0,.87,1,1.18.63l.11.11.1.26a1.91,1.91,0,0,1,.32.16L32,9.67a5.27,5.27,0,0,0,1.62,1.65h-.19a3.34,3.34,0,0,1,1.1,1c-.05,0-.06,0-.18,0,.73,1.53,2.48,2.45,3.6,3.62a3.26,3.26,0,0,0-.41,0,4.16,4.16,0,0,1,1.13,1l.51.55,0,0h-.32l-.3,0-.16-.12a.83.83,0,0,1-.19.17l-.37-.25a13.86,13.86,0,0,0-1.54.1c-.68.05-1.36.11-2.06.13l.08-.22c-1.29.39-2.74,0-4.11.16l.1-.08c-2.51-.06-4.88.12-7.3.29H4a1.5,1.5,0,0,0-.17,3c0,.16,0,.31.28.45l.1-.27c.18.27.13.14.2.33.67,0,.76.43,1.24.59v0c.33-.32.79-.13,1-.09l.11.15c.16.31.77-.6.56-.07,1.37-.13,2.95-.13,4.48-.13.21-.21,1.17,0,.84-.37a3.06,3.06,0,0,0,1.95.53c0,.05,0,.09-.1.08.82.57,1-.54,1.74.17.12-.5,1.4.16,1.83-.43a.3.3,0,0,1,.1.3c1.38,0,2.91.19,4.09.21,1-.43,2.42.2,3.29-.4a7.17,7.17,0,0,0,2.86.14l-.09.07a9.65,9.65,0,0,0,3.3-.45c.33.58.82.47,1.3.65.75-.27,2.27-.19,3.42-.43.08.13.32.1.54.09.06,0,.12,0,0,.18a2.07,2.07,0,0,1,1.09-.38c.09,0,.06,0,0,0l0,.09-.14.2c-.12.15-.22.27-.41.47l-.72.72C36.5,23.36,32.45,27.86,32.08,28.36Zm-27-7.71h.49A2,2,0,0,1,5.06,20.65Zm3.35,0h.35A1,1,0,0,1,8.41,20.65Z"/>
    <path d="M5.69,21.73c0,.05.12,0,.18.05Z"/>
</svg>
