<svg id="Calque_1" data-name="Calque 1" xmlns="http://www.w3.org/2000/svg" viewBox="0 0 25.94 39.47">
    <path d="M18,19.68c0,.49-2.23,2.59-2.23,2.59-.12.15-.22.27-.41.47l-.72.72c-.19.3-4.24,4.8-4.61,5.3V28.6c-.28.54-1.06.66-1.32,1.36h-.1l-.21.41c-.08-.1-.21-.24,0-.38-1,.94-1.89,1.91-2.82,2.9l-.36.39a2.54,2.54,0,0,0-.47.73,2.28,2.28,0,0,0-.08,1.72A2.71,2.71,0,0,0,5.7,37a2.47,2.47,0,0,0,1.58.44,2.36,2.36,0,0,0,1.45-.71L9.44,36,10.8,34.4c.94-1,1.88-2,2.85-3l-.05.24.58-.93v.16a31.59,31.59,0,0,0,2.8-3.1c0,.05,0,.28.17.19.41-1,1.4-.87,1.19-1.72a.17.17,0,0,1,.18.15v0c.82-1.1,1.7-2.19,2.59-3.26l1.35-1.59a6.49,6.49,0,0,0,.73-.93,2.42,2.42,0,0,0,.31-1.44,2.23,2.23,0,0,0-1.12-1.29c-1.45-1.28-2.63-3-4.27-4.09l.1-.08C15.74,11.82,13.79,9.15,11.46,7c-.9-1-1.64-1.51-2.59-2.44l.05-.11a6,6,0,0,1-.71-.5,2,2,0,0,0-.83-.41,1.81,1.81,0,0,0-1.74.65,1.6,1.6,0,0,0-.09,2A5,5,0,0,0,7,7.3H6.71c.48,0,.87,1,1.18.63L8,8l.1.26a1.37,1.37,0,0,1,.32.16L10,10.07a5.31,5.31,0,0,0,1.62,1.65h-.19a3.19,3.19,0,0,1,1.1,1h-.18c.73,1.53,2.48,2.45,3.6,3.62a2.81,2.81,0,0,0-.41,0,4.29,4.29,0,0,1,1.13,1S18.06,18.65,18,19.68Z"/>
</svg>
