<svg xmlns="http://www.w3.org/2000/svg" width="43.59mm" height="20.65mm" viewBox="0 0 123.57 58.54"><g id="Calque_34" data-name="Calque 34"><path d="M123.42,29c.18-3.49.15-7,.14-10.49s-.37-7.4-2.13-10.56c-3.51-6.28-11-8.16-17.73-7.79a1.1,1.1,0,0,0-.51-.11Q79,.08,54.71.28,42.47.37,30.23.4l-12,.06A44.26,44.26,0,0,0,8.82,1,9.6,9.6,0,0,0,2.37,5.3c-1.73,3-1.43,7-1.58,10.31C.61,19.55.49,23.48.34,27.42l-.22,5.9a36.86,36.86,0,0,0,0,5C.42,41.75,2.89,43.22,6,43.92a30,30,0,0,0,6.7.58h0l.16-.07h0l.75-.31q30.82.77,61.66,1,8.37.06,16.73.07a.79.79,0,0,0,.67.26c1,0,1.93,0,2.89,0a17.3,17.3,0,0,1,2.88,0A5.71,5.71,0,0,1,102.07,48a36.36,36.36,0,0,1,4.4,9.83.72.72,0,0,0,.6.53,1.19,1.19,0,0,0,1.55-.32,11.63,11.63,0,0,0,1.19-2.33c.35-.79.66-1.59,1-2.39s.57-1.57.8-2.37c.17-.62.37-1.26.48-1.91a1.72,1.72,0,0,1,.27-.56c.27-.34.31-.31.69-.37.73-.13,1.58,0,2.32-.07a22.1,22.1,0,0,0,2.29-.31,6.76,6.76,0,0,0,3-1.06A4.38,4.38,0,0,0,122,43.87c.3-1.49.52-3,.7-4.52q.12-1.05.21-2.1c.13-1.31.27-2.62.34-4,0-.55,0-1.11,0-1.67l.06-1.07C123.36,30,123.42,29.49,123.42,29Zm-2.54,10.8c-.16,1.43-.38,2.87-.68,4.28-.18.83-.32,1.53-1.22,1.81a12,12,0,0,1-2.07.39,38.74,38.74,0,0,1-3.88.17,2.52,2.52,0,0,0-2.32,1.35,65.55,65.55,0,0,0-3,6.91l-.08.07a25.2,25.2,0,0,0-4.26-8.23,7.65,7.65,0,0,0-4-2.74,18.13,18.13,0,0,0-5.46-.1.85.85,0,0,0-.57-.19Q62,43.41,30.68,42.79l-14.49-.33,0,0h-.38l-3.08-.07a1,1,0,0,0-.53.16A17.88,17.88,0,0,1,4.61,41.3c-3.42-1.59-2.39-6.11-2.25-9.15.17-3.78.33-7.55.52-11.32s.19-7.32.43-11c.2-3.15,1.4-5.63,4.53-6.66,2.78-.91,5.8-.78,8.68-.8L28,2.33,51,2.2c17.1-.1,34.21-.12,51.32-.25H103a1.06,1.06,0,0,0,.19,0c6.5-.33,13.88,1.33,17,7.7,1.55,3.22,1.43,6.84,1.32,10.33s-.38,7-.34,10.53a.77.77,0,0,0-.07.36A61.76,61.76,0,0,1,120.88,39.75Z"/></g></svg>