<svg xmlns="http://www.w3.org/2000/svg" width="52.42mm" height="25.28mm" viewBox="0 0 148.58 71.67">
    <g id="Calque_34" data-name="Calque 34">
        <path d="M148.58,13.56c0-.19,0-.38,0-.58-.09-.87-.27-1.78-.44-2.63q-.18-.84-.42-1.68h-.06a11.53,11.53,0,0,0-2.82-4.14c-6-5.64-14.76-4.8-22.27-3.83a.92.92,0,0,0-.32.1c-23.42.4-46.84.76-70.26.72-3.66,0-7.31,0-11-.05-2.36,0-4.74-.08-7.11-.08l-1.36-.08-1.46-.14a.94.94,0,0,0-.31-.08C23.88.37,16.22-.17,10,3.46,4.21,6.81,1.47,13.15.57,19.53-.51,27.16.23,35.08.49,42.74c.07,2.23.15,4.45.22,6.68a19.3,19.3,0,0,0,.54,5,5.29,5.29,0,0,0,2.4,3.25c1.57.85,3.32.53,5,.21s3.22-.48,4.47.79A9.7,9.7,0,0,1,14.93,62a41.82,41.82,0,0,0,1.91,4.66.17.17,0,0,1,0,0c.12.26.24.51.37.76h0c.58,1.31,1.23,2.61,1.89,3.89.36.71,1.56.26,1.76-.37l0-.13a.74.74,0,0,0,.17-.25l.45-1a55.26,55.26,0,0,0,3-6.76c1-2.39,2.16-5,4.5-6.36a10.57,10.57,0,0,1,5.14-1.07c2.11,0,4.22,0,6.33,0,4-.06,8,0,12,0,16.48,0,33,.25,49.43.27h3.64c.21,0,.41,0,.62,0a8.58,8.58,0,0,0,1,0l22.71,0a1.27,1.27,0,0,0,.82-.3,89.22,89.22,0,0,0,8.95.09c3-.13,6.29-1,7.77-3.92,1.62-3.18,1-7.4.95-10.84,0-4.4,0-8.79,0-13.19q0-4.41,0-8.81l0-.13c0-.21-.05-.39,0-.59a1.05,1.05,0,0,1,.05-.19h0v-.23l0,0v0a10.84,10.84,0,0,0,0-1.14c0-.22,0-.44,0-.65C148.57,14.93,148.59,14.24,148.58,13.56Zm-2.42,36.26a4.93,4.93,0,0,1-4.22,3.43,31,31,0,0,1-6.17,0c-2.5-.1-5-.24-7.52-.18a.9.9,0,0,0-.39.1c-16.21,0-32.43.06-48.64,0-8.5,0-17,.11-25.49.09-4.33,0-8.66,0-13,0-3.73,0-8.07-.58-11.6.9-5.4,2.27-6.49,8.27-8.75,13.15l-.07-.08-.3.84a1.09,1.09,0,0,0-.13.17c-.06-.19-.13-.37-.19-.55-.18-.54-.34-1.09-.51-1.63C18.83,65,18.4,63.92,18,62.84a.28.28,0,0,0-.12-.14c-.84-2.41-1.57-4.88-3.76-6.3a5.92,5.92,0,0,0-3.68-.85c-1.54.1-3.31.88-4.83.33-3-1.08-2.31-6.52-2.37-8.91-.18-7.61-.74-15.29-.47-22.9C3,18.13,3.87,11.4,8.47,7.15c5.6-5.17,14-4.44,21-3.75H30c6.22.3,12.52,0,18.74,0,6.48,0,12.95,0,19.43-.08C81,3.28,93.76,3.13,106.54,3c7.32-.07,14.62-.34,21.93-.54a1.1,1.1,0,0,0,1-.75c5-.17,10.06.58,13.88,4.17a10.94,10.94,0,0,1,3.07,5.41c0,.37,0,.75,0,1.1s0,.88,0,1.32v0c0,1.23,0,2.46,0,3.69,0,.22,0,.45,0,.68l0,.22c0,8.3.14,16.61.12,24.91C146.6,45.41,146.8,47.74,146.16,49.82Z"/>
    </g>
</svg>
