<svg xmlns="http://www.w3.org/2000/svg" width="45.07mm" height="21.2mm" viewBox="0 0 127.77 60.08"><g id="Calque_34" data-name="Calque 34"><path d="M127.74,35.27c-.38-8.15-.45-16.23-.14-24.38a.57.57,0,0,0-.35-.59,12.93,12.93,0,0,0-.88-4.36c-1.26-3-4.15-4.31-7.22-4.78A103,103,0,0,0,107,.37c-.84,0-1.68,0-2.52,0C103.34.27,102.22.22,101.1.2a54.39,54.39,0,0,0-5.71,0A1,1,0,0,0,95,.09c-4.9.06-9.8-.07-14.69,0S70.47.15,65.57.14C55.69.13,45.81.06,35.94,0,30.37,0,24.81,0,19.25,0a.89.89,0,0,0-.41.11C13.13.37,6.8,1.38,3.26,6.21a18.07,18.07,0,0,0-3,9.18A103.28,103.28,0,0,0,.12,27.58c.09,4.19.34,8.36.68,12.53a1.27,1.27,0,0,0-.06.18,18.54,18.54,0,0,0,.2,3.79,10.1,10.1,0,0,0,.6,3.5c1,2.05,3.46,2.57,5.52,2.32,1-.13,2.53-.85,3.47-.25a5.6,5.6,0,0,1,1.65,2.49c1.18,2.49,2.37,5,3.55,7.46a.74.74,0,0,0,.89.37,1.07,1.07,0,0,0,1.4-.44c.71-1.59,1.42-3.17,2.12-4.76a48.46,48.46,0,0,1,2.14-4.69c1.7-2.94,5-2.78,8-2.82,7.14-.1,14.28-.16,21.42-.26,14.19-.2,28.39-.32,42.59-.5,8-.1,16.09-.06,24.14-.17a.9.9,0,0,0,.42-.13c2.39,0,4.87-.42,6.58-2.22C127.62,41.64,127.88,38.3,127.74,35.27Zm-2.24,6.1c-1.48,3.24-4.75,3.32-7.85,3.28a.8.8,0,0,0-.54.23c-14.45.07-28.9.29-43.35.42-14.77.14-29.55.25-44.32.46-3,0-6.19.39-8.11,3a26,26,0,0,0-2.39,4.88c-.6,1.35-1.19,2.7-1.78,4.05l-3-6.28c-.81-1.69-1.69-3.69-3.84-3.77s-4.64,1.46-6.43-.38C3,46.38,3.07,45,3,43.8a2.35,2.35,0,0,1,0-.27c0-.18,0-.35,0-.52s-.07-.63-.1-.95l-.18-.77a6.59,6.59,0,0,1-.09-1.09,4.15,4.15,0,0,1-.14-.61l0,0c-.31-4.44-.5-8.9-.58-13.35s-.31-9.08.47-13.47C3,8.53,5.21,5.09,9.22,3.37c3.62-1.55,7.64-1.65,11.51-1.79l.12,0C39.93,1.79,59,1.37,78.1,1.8c5.42.12,10.85,0,16.28.1a5.07,5.07,0,0,1,.55,0l.2,0,1.74,0c.45,0,.9,0,1.35.06a.53.53,0,0,0,.22,0c4.29.07,8.57.18,12.85.46a.94.94,0,0,0,.67-.27c1.69.1,3.37.21,5.05.36,3.12.28,6.23,1,7.77,4,1.12,2.2,1.08,4.77.86,7.21l0,.81a6.24,6.24,0,0,1,.07,1c0,.13,0,.26,0,.39l0,0c-.12,5.24,0,10.47.29,15.72C126.19,34.76,126.86,38.38,125.5,41.37Z"/></g></svg>