<svg id="Calque_2" data-name="Calque 2" xmlns="http://www.w3.org/2000/svg" width="31.39mm" height="12.35mm"
     viewBox="0 0 88.98 35.02">
    <path d="M81.69,5.91C75,1,66.65.56,58.62.18a2.87,2.87,0,0,0-1.09.18Q48.16-.07,38.77,0C31.67.1,24.31,0,17.32,1.38c-5.82,1.19-11.66,4.06-15,9.19A13.63,13.63,0,0,0,3,26.7c6.16,7.85,15.76,7.88,25.11,7.21a2,2,0,0,0,.42,0c4.12-.26,8.19-.56,12.33-.51s8.13.34,12.18.78c7.75.84,15.8,1.43,23.47-.28A15.86,15.86,0,0,0,85.28,29a15.49,15.49,0,0,0,3.56-7.91C89.7,15,86.53,9.46,81.69,5.91ZM84.94,20.1c-.84,15-21.06,11.38-31,10.4-8.3-.82-16.74-1.47-25-.31a3.24,3.24,0,0,0-1.18.43c-1.06.06-2.13.12-3.2.15-5.42.14-11.25-.63-15.67-4a13.79,13.79,0,0,1-4.4-5.3,10,10,0,0,1,0-7.47C6.33,9.17,11.2,6.38,16,5.07A48.26,48.26,0,0,1,26.11,3.69c3.68-.21,7.38-.34,11.07-.4q11.34-.18,22.66.43A2.66,2.66,0,0,0,61,3.51c5.44.38,11,1.16,15.77,3.8C81.43,9.86,85.25,14.57,84.94,20.1Z"/>
    <path fill="#FFF500"
          d="M79.81,12.32C75.08,6.45,66.54,5.37,59.5,5.25A136.63,136.63,0,0,0,43.71,6c-8.06,0-16.19,0-24.23.62a15.08,15.08,0,0,0-9.77,4.14C7.3,13.21,5.47,16.69,6,20.2s3.57,5.24,6.72,5.89c3.6.74,7.51.61,11.17.73q12.59.39,25.17.47,6.33,0,12.67,0c2.15,0,4.3-.06,6.45,0a30.58,30.58,0,0,0,4.59-.14c3.51-.46,6.71-1.89,8.39-5.2A9.06,9.06,0,0,0,79.81,12.32Z"/>
</svg>
