<svg xmlns="http://www.w3.org/2000/svg" width="6.33mm" height="6.05mm" viewBox="0 0 17.95 17.15">
    <g id="Paramètre">
        <g id="Calque_22" data-name="Calque 22">
            <path d="M14.34,2A11.1,11.1,0,0,0,7.79,0,6.63,6.63,0,0,0,2.61,3.39,8.39,8.39,0,0,0,.09,10.58a8.18,8.18,0,0,0,7.13,6.54,11.26,11.26,0,0,0,5.92-1.34,8.66,8.66,0,0,0,4.1-4A7.72,7.72,0,0,0,14.34,2Zm1.06,8.51a5.6,5.6,0,0,1-2.49,3.23,9.64,9.64,0,0,1-4.55,1.5,6.38,6.38,0,0,1-6-4.36,6.37,6.37,0,0,1,1.33-6,1,1,0,0,0,.45-.24c.27-.26.52-.53.77-.79.12-.08.23-.17.36-.24A1.1,1.1,0,0,0,5.77,3a3.11,3.11,0,0,1,1.78-.74A9,9,0,0,1,12,3.44,6,6,0,0,1,15.4,10.51Z"/>
        </g>
    </g>
</svg>
