<?xml version="1.0" encoding="utf-8"?>
<!-- Generator: Adobe Illustrator 25.2.3, SVG Export Plug-In . SVG Version: 6.00 Build 0)  -->
<svg version="1.1" xmlns="http://www.w3.org/2000/svg" xmlns:xlink="http://www.w3.org/1999/xlink" x="0px" y="0px"
	 viewBox="0 0 82.5 83" style="enable-background:new 0 0 82.5 83;" xml:space="preserve">
<style type="text/css">
	.st0{fill:#FFFFFF;}
	.st1{fill:#FFF500;}
	.st2{display:none;}
	.st3{fill:#B9B9B9;}
	.st4{display:inline;}
	.st5{display:inline;fill:#FFFFFF;}
	.st6{opacity:0.6118;fill:#FF00FF;}
	.st7{fill:none;}
</style>
<g id="Login">
	<g id="Calque_1">
	</g>
	<g id="Calque_2">
	</g>
	<g id="Calque_4">
	</g>
</g>
<g id="Le_saviez-vous">
	<g id="Calque_8">
	</g>
	<g id="Calque_9">
	</g>
</g>
<g id="Règles">
	<g id="Calque_11">
	</g>
	<g id="Calque_12">
	</g>
</g>
<g id="Jeu">
	<g id="Calque_14">
	</g>
	<g id="Calque_15">
	</g>
	<g id="Calque_16">
	</g>
	<g id="Calque_17">
	</g>
	<g id="Calque_24">
		<g id="Calque_18">
		</g>
	</g>
</g>
<g id="Paramètre">
	<g id="Calque_21">
	</g>
	<g id="Calque_20">
	</g>
	<g id="Calque_22">
	</g>
</g>
<g id="Omg">
	<g id="Calque_25">
		<g id="Calque_26">
		</g>
	</g>
</g>
<g id="Devine_qui">
	<g id="Calque_28">
	</g>
	<g id="Calque_29">
	</g>
</g>
<g id="Calque_30">
	<g id="Calque_33">
		<g id="Calque_32">
		</g>
		<g id="Calque_31">
		</g>
	</g>
</g>
<g id="Calque_35" class="st2">
</g>
<g id="Calque_34">
</g>
<g id="Calque_36">
</g>
<g id="Calque_3">
	<g id="Calque_37">
	</g>
</g>
<g id="Calque_38">
</g>
<g id="Calque_39">
</g>
<g id="Calque_40" class="st2">
	<g id="Calque_41" class="st4">
	</g>
</g>
<g id="Calque_42">
	<g id="Calque_43">
		<path class="st0" d="M76,56.5C76.1,56.5,76.1,56.5,76,56.5c7-13.1,5.4-28.1-4.7-39.6c-6.6-7.5-16.5-12-26.5-12.8
			c-0.4-0.2-0.8-0.4-1.3-0.6c-7.8-3.3-16.2-1.9-20.7,4.9c-1.4,0.8-2.8,1.7-4.1,2.6c-1.7,0.7-3.2,1.7-4.7,2.9
			C6.2,20.1,2.7,32,2.4,41.6C2.1,51.8,6.4,62.8,13.5,70c6.8,6.9,16.9,11,26.6,10.7c5.9-0.2,11.5-1.9,16.6-4.7
			c1.2-0.3,2.3-0.7,3.5-1.3c3.3-1.8,5.9-4.1,8.1-6.9C71.5,64.5,74.1,60.7,76,56.5z"/>
	</g>
	<path d="M81.3,31.7C77.6,17.5,66.6,5.7,52.5,1.5c-1.7-0.5-3.4-0.9-5.2-1.2c-0.1,0-0.3,0-0.4,0C45.5-0.1,43.8,0,42.4,0
		c-1.6,0-3.2,0.2-4.8,0.4c-3.3,0.4-6.6,1.3-9.8,2.4c-6.5,2.3-12.1,5.6-17,10.5c-0.3,0.2-0.4,0.5-0.5,0.8C1.6,24-1.8,38.2,0.9,51.1
		C4,65.5,15.2,76.5,29,81c6.8,2.2,14.2,2.6,21.3,1.1c7.2-1.5,13.7-5.4,19-10.4C79.8,61.5,85.1,46,81.3,31.7z M70.4,65.4
		c-4.3,5.2-9.8,9.4-16.1,11.7c-6.2,2.2-12.9,2.7-19.3,1.5C22,76.2,10.2,67.5,5.7,54.9c-4.4-12.5-2.3-27.4,6.2-37.7
		c0.4-0.4,0.8-0.9,1.1-1.3c0.1-0.1,0.2-0.1,0.2-0.2c4.4-4.2,10.1-7.8,15.8-9.8c2.9-1,5.9-1.7,8.9-2c1.6-0.2,3.2-0.3,4.8-0.3
		c0.9,0,1.7,0,2.6,0.1c0.2,0.3,0.5,0.5,0.9,0.5c13.1,1.9,24.9,11.3,30.1,23.5C81.7,40.2,78.9,54.9,70.4,65.4z"/>
</g>
</svg>
