<?xml version="1.0" encoding="utf-8"?>
<!-- Generator: Adobe Illustrator 25.2.2, SVG Export Plug-In . SVG Version: 6.00 Build 0)  -->
<svg version="1.1" xmlns="http://www.w3.org/2000/svg" xmlns:xlink="http://www.w3.org/1999/xlink" x="0px" y="0px"
	 viewBox="0 0 101.7 98.3" style="enable-background:new 0 0 101.7 98.3;" xml:space="preserve">
<style type="text/css">
	.st0{display:none;}
</style>
<g id="Login">
	<g id="Calque_1" class="st0">
		
			<image style="display:inline;overflow:visible;opacity:0.302;" width="390" height="844" xlink:href="45F89CA642E6C8A7.png"  transform="matrix(0.6273 0 0 0.6273 -72.2385 -100.9126)">
		</image>
	</g>
	<g id="Calque_3">
		<g id="Calque_4">
		</g>
	</g>
	<g id="Calque_2">
	</g>
	<path d="M96.8,26.6c-4.9-9.9-13.5-17.5-23.5-22c-0.1-0.3-0.4-0.6-0.8-0.7c-1-0.3-2-0.6-3-0.8c-0.1,0-0.2-0.1-0.4-0.1
		c-7.2-2.5-14.9-3.4-22.5-2.7c-0.2-0.1-0.5-0.2-0.8-0.2c-2.4-0.2-5,0.8-7.3,1.6c-0.7,0.2-1.4,0.5-2.1,0.8c-1.3,0.4-2.6,0.9-3.9,1.4
		C21.1,8.7,11.3,17.5,5.3,28.5c-1.5,2.7-2.7,5.5-3.7,8.3c-0.2,0.6-0.2,1.2,0.1,1.5C1,40.9,0.5,43.4,0.3,46c-0.1,0.4-0.1,0.8-0.2,1.1
		c0,0.2,0,0.5,0,0.7c0,0.1,0,0.3,0,0.4c-0.4,6.4,0.8,12.6,3.5,18.4C8.9,78.3,19.3,87,30.3,93c2.3,1.3,4.7,2.4,7.1,3.5c0,0,0,0,0,0
		c3,1.2,6.3,1.7,9.5,1.7c5.7,0.1,11.6-0.6,17.2-2c5.9-1.5,11.4-4.1,16.3-7.8C85,85,89,80.6,92.5,76.1c2-2.6,4-5.2,5.5-8.1
		c1.2-2.2,2.2-5,2.1-7.7C103,49.1,102,36.9,96.8,26.6z M95.2,48.8c-0.7,12.7-6.7,25.2-16.6,33.3c-1.3,1.1-2.6,2.1-4,2.9
		c-2,1.1-4.1,2.1-6.2,3c-3,1.2-6,2.3-9.2,3.1c-0.1,0-0.2,0.1-0.3,0.1c-0.9,0.1-1.7,0.2-2.6,0.3c-4,0.4-8.1,0.7-12.1-0.1
		C41.8,90.9,39.3,90,37,89c0,0,0,0,0,0c-0.4-0.4-0.8-0.5-1.3-0.6c-1.3-0.6-2.5-1.2-3.7-1.7c-0.3-0.1-0.6-0.2-0.9-0.2
		c-1.7-1-3.3-2-4.9-3.1c-4.7-3.3-9.3-7.1-12.8-11.7C7.9,64.5,5,55.8,5.1,47c0-0.1,0.1-0.2,0.1-0.2c1.5-7.9,5.3-15.4,10.1-21.8
		c2.4-3.2,5-5.9,8.1-8.5c1.7-1.4,2.8-2.2,4.5-3.4c1.7-1.1,3.4-2.2,5.2-3.1c0.5-0.3,1.1-0.5,1.6-0.8c0.2-0.1,0.4-0.2,0.6-0.3
		c0,0,0.4-0.2,0.6-0.3c1-0.4,1.9-0.8,2.9-1.2C40.3,6.8,42,6.5,43.5,6C49.3,5,55.2,5,61,5.8c0.4,0,0.7,0.1,1.1,0.2
		c9.6,2.6,18.5,8.2,24.6,16.1c5.7,7.4,8.7,16.5,9,25.7C95.4,48,95.2,48.4,95.2,48.8z"/>
</g>
<g id="Le_saviez-vous">
</g>
<g id="Calque_8">
</g>
</svg>
