<svg xmlns="http://www.w3.org/2000/svg" width="5.92mm" height="6.37mm" viewBox="0 0 16.77 18.05"><g id="Devine_qui" data-name="Devine qui"><g id="Calque_28" data-name="Calque 28"><path d="M12,.23A12.2,12.2,0,0,0,10.29.09C9.68.05,9.06,0,8.45,0A24.49,24.49,0,0,0,5,.18,1.32,1.32,0,0,0,3.85,1.25a.83.83,0,0,0,1,.87C5.94,2,7.05,2,8.17,1.93c.51,0,1,0,1.52,0s1.22.16,1.83.18a1.29,1.29,0,0,0,1.15-.93A.8.8,0,0,0,12,.23Z"/><path d="M15.86,6.37a7.51,7.51,0,0,0-4.92-3.2,7.58,7.58,0,0,0-5.35.48A8.39,8.39,0,0,0,.14,9.83a6.92,6.92,0,0,0,.68,4.68,6.33,6.33,0,0,0,4,3.14,10,10,0,0,0,9.82-2.41A7.65,7.65,0,0,0,15.86,6.37Zm-2.22,7.24a7.51,7.51,0,0,1-6.82,2.67,5.66,5.66,0,0,1-3.84-2,6.09,6.09,0,0,1-1.25-3.54c-.15-2.45,1.6-4.4,3.72-5.41a.91.91,0,0,0,.44-.12A5.39,5.39,0,0,1,10,5c1.34.36,2.72.7,3.57,1.86A5.67,5.67,0,0,1,13.64,13.61Z"/><path d="M11.59,7.6a.86.86,0,0,0-.78-.29,4.07,4.07,0,0,0-2,1.23l-1.24,1a1.19,1.19,0,0,0-.38.7.78.78,0,0,0,.25.66,1,1,0,0,0,.73.21,1.5,1.5,0,0,0,.8-.36l1.26-1,.62-.47a2.6,2.6,0,0,0,.32-.26,1.89,1.89,0,0,0,.49-.69A.78.78,0,0,0,11.59,7.6Z"/></g></g></svg>