<?xml version="1.0" encoding="utf-8"?>
<!-- Generator: Adobe Illustrator 25.2.2, SVG Export Plug-In . SVG Version: 6.00 Build 0)  -->
<svg version="1.1" xmlns="http://www.w3.org/2000/svg" xmlns:xlink="http://www.w3.org/1999/xlink" x="0px" y="0px"
	 viewBox="0 0 13.6 15.5" style="enable-background:new 0 0 13.6 15.5;" xml:space="preserve">
<style type="text/css">
	.st0{fill:#FFFFFF;}
</style>
<g id="Login">
	<g id="Calque_1">
	</g>
	<g id="Calque_3">
		<g id="Calque_4">
		</g>
	</g>
	<g id="Calque_2">
	</g>
</g>
<g id="Le_saviez-vous">
	<g id="Calque_8">
	</g>
	<g id="Calque_9">
	</g>
</g>
<g id="Règles">
	
		<image style="display:none;overflow:visible;opacity:0.302;" width="390" height="844" xlink:href="D67BD03F4D79CEC5.png"  transform="matrix(0.6273 0 0 0.6273 -216.6271 -37.4326)">
	</image>
	<g id="Calque_11">
		<path d="M11.3,4.5c0.5-0.5,1-1.1,1.4-1.7c0.4-0.6,1-1.5,0.8-2.3c-0.2-0.9-1.3-0.7-1.8-0.3c-0.6,0.5-0.9,1.2-1.3,1.8
			c-0.4,0.5-0.8,1-1.3,1.4c-0.8,0.7-1.7,1.4-2.6,2c-1.1-1.6-2.1-3.3-3.1-5C2.7-0.8,0.2,0.6,1,1.9c1,1.8,2.1,3.6,3.2,5.3
			c-1.8,1.5-3.5,3.2-4.2,5.5c-0.5,1.6,1.9,1.6,2.3,0.4c0.5-1.7,1.7-2.9,3.1-4c0.7,1.1,1.5,2.1,2.3,3.1c0.4,0.5,0.8,1.1,1.3,1.6
			c0.5,0.6,0.9,1.3,1.6,1.6c0.9,0.3,2-0.4,1.9-1.4c-0.1-0.7-0.7-1.2-1.1-1.7c-0.4-0.5-0.8-1-1.2-1.5C9.3,9.7,8.5,8.6,7.7,7.4
			c0,0,0,0,0,0c0,0,0.1-0.1,0.1-0.1C9,6.5,10.2,5.6,11.3,4.5z"/>
	</g>
	<g id="Calque_12">
	</g>
</g>
<g id="Calque_13">
</g>
</svg>
