<svg xmlns="http://www.w3.org/2000/svg" width="41.61mm" height="15.23mm" viewBox="0 0 117.96 43.17">
    <g id="Calque_13" data-name="Calque 13">
        <g id="Calque_14" data-name="Calque 14">
            <path d="M117.85,15.7c-.21-2.4-.65-4.95-2.75-6.44s-4.75-1.81-7.15-2C105,7,102.09,7,99.17,7c-6.32,0-12.63,0-19,0q-20.83.12-41.65,1l-.1-.12A25.42,25.42,0,0,0,19.38,1,20.84,20.84,0,0,0,2.86,11.51a20.24,20.24,0,0,0-.72,19.4A21.15,21.15,0,0,0,13.94,41.1a21.49,21.49,0,0,0,4.08,1,20.85,20.85,0,0,0,7.91-.3A20.64,20.64,0,0,0,38,33.94a146.09,146.09,0,0,0,17.62,1.22q9.14.33,18.27.73c6.17.26,12.34.55,18.51.78,6,.23,12.09.59,18.08-.19a8.84,8.84,0,0,0,3.47-.83,4.07,4.07,0,0,0,1.76-2.71c.7-2.85,1.28-5.74,1.73-8.64A35.89,35.89,0,0,0,117.85,15.7ZM115.64,20a55,55,0,0,1-1.06,8.09c-.27,1.35-.56,2.68-.87,4-.12.55-.21,1.52-.68,1.91a5.05,5.05,0,0,1-2,.43c-5.72.77-11.5.45-17.25.24s-11.39-.39-17.08-.58q-9.78-.31-19.55-.7c-6.41-.25-12.87-.31-19.18-1.54a1,1,0,0,0-.3,0,1.2,1.2,0,0,0-1.43.44,18.69,18.69,0,0,1-15.74,8.17c-.28,0-.55,0-.83,0s-.59-.06-.87-.11A27,27,0,0,1,12,37.81a.82.82,0,0,0-.54,0,20.06,20.06,0,0,1-6.28-6.16A18.61,18.61,0,0,1,3.62,14.14a18.18,18.18,0,0,1,13.92-11,23.48,23.48,0,0,1,19.27,6.3,1,1,0,0,0,1,.15,1,1,0,0,0,.4.07Q55.63,9,73.07,8.77q8.72-.12,17.44-.08c2.82,0,5.64.05,8.46.1a89.45,89.45,0,0,1,9,.39c2.23.28,5.32.66,6.64,2.73S115.77,17.51,115.64,20Z"/>
        </g>
    </g>
</svg>
