<svg xmlns="http://www.w3.org/2000/svg" width="5.61mm" height="6.07mm" viewBox="0 0 15.91 17.19">
    <g id="Calque_13" data-name="Calque 13">
        <g id="Calque_16" data-name="Calque 16">
            <path d="M14.66,4.48C12.45,1.21,8.34.09,4.6.92a1,1,0,0,0-.66,1.55A7.92,7.92,0,0,0,0,9.26,7.15,7.15,0,0,0,4.74,16.2a7.87,7.87,0,0,0,5.19-.39A9.85,9.85,0,0,0,14.36,13,7.25,7.25,0,0,0,14.66,4.48Zm-1.4,6.63a4.9,4.9,0,0,1-2.59,2.44,8.1,8.1,0,0,1-3.88,1,5.17,5.17,0,0,1-4.7-4.25C1.58,7.71,3,4.21,5.68,3.47a1,1,0,0,0,.72-.75,8.11,8.11,0,0,1,5.33,2.12A5.71,5.71,0,0,1,13.26,11.11Z"/>
            <path d="M8.86,5a1,1,0,0,0-.29-.49l0,0a1.37,1.37,0,0,0-.25-.15A1.4,1.4,0,0,0,8,4.22h0a1.57,1.57,0,0,0-.65.06,1.64,1.64,0,0,0-.61.36,1.44,1.44,0,0,0-.38.53,1.31,1.31,0,0,0-.07.62.11.11,0,0,1,0,0,1.88,1.88,0,0,0,.12.3l0,0,.16.19v0l0,0a1.59,1.59,0,0,0,.27.18l.06,0a2.49,2.49,0,0,0,.32.08,1.4,1.4,0,0,0,.61-.06,1.57,1.57,0,0,0,.57-.34,1.21,1.21,0,0,0,.21-.24h0a.73.73,0,0,0,.16-.37.64.64,0,0,0,0-.22l0-.14V5.27A1.48,1.48,0,0,0,8.86,5Z"/>
            <path d="M8.66,8.07a.84.84,0,0,0-.5-.6,1.18,1.18,0,0,0-.72-.06,1.41,1.41,0,0,0-.72.36,1.21,1.21,0,0,0-.42.77c0,.67,0,1.35,0,2,0,.33,0,.65,0,1,0,.49,0,1.1.39,1.44a1,1,0,0,0,.85.18,1.39,1.39,0,0,0,.84-.54,2.09,2.09,0,0,0,.33-1.32c0-.34,0-.69,0-1C8.73,9.54,8.69,8.8,8.66,8.07Z"/>
        </g>
    </g>
</svg>
