<svg xmlns="http://www.w3.org/2000/svg" width="53.38mm" height="11.46mm" viewBox="0 0 151.31 32.49">
    <g id="Calque_3" data-name="Calque 3">
        <path d="M151.13,11.45c-.83-4.66-4.69-7.16-9-8.31a53.12,53.12,0,0,0-7.52-1.24c-3-.36-6-.65-9-.89q-9-.7-18.06-.62c-2.93,0-5.85.13-8.78.3a1,1,0,0,0-.79.47C76.38.26,54.73-.48,33.09.38,23.05.78,11,.72,3.8,8.91a14.25,14.25,0,0,0-3.57,12C1.11,25.6,4.54,28.6,9,29.88a77.58,77.58,0,0,0,17.09,2.49,113.09,113.09,0,0,0,17.84-.66c12.21-1.26,24.32-1,36.56-.58,12.39.39,24.78.64,37.17.88,5.65.11,11.47.58,17.05-.5A20.91,20.91,0,0,0,147,24.44C149.91,20.93,152,16.1,151.13,11.45Zm-3.76,8.18a17.14,17.14,0,0,1-9.8,9.05c-4.93,1.77-10.33,1.47-15.48,1.39-11.55-.18-23.09-.5-34.64-.84-11.38-.32-22.83-1-34.22-.44-5.68.29-11.31,1.12-17,1.42a91.72,91.72,0,0,1-17-.8c-2.58-.34-5.17-.73-7.71-1.3A13.23,13.23,0,0,1,5,25C2,22.1,1.61,17.25,3.15,13.57c4-9.63,16.35-10.51,25.26-11C51.5,1.4,74.65,2,97.75,2.85l8.45.32a1.33,1.33,0,0,0,1.2-1,187.2,187.2,0,0,1,25.48,1.63c4.2.57,9.28.89,12.74,3.64C149.4,10.46,149.18,15.56,147.37,19.63Z"/>
        <g id="Calque_4" data-name="Calque 4">
            <path d="M139.09,10.36a1.65,1.65,0,0,0-1.56-.36.67.67,0,0,0-.16-.12,1.24,1.24,0,0,0-1.45.48c-1.74,3.1-3.27,6.33-5.07,9.4a1.1,1.1,0,0,0-.12,1,1.56,1.56,0,0,0,.88.6c.84.34,1.64.52,2.31-.25a14,14,0,0,0,1.4-2.16c.44-.75.88-1.49,1.31-2.25a49.54,49.54,0,0,0,2.67-5.36A.92.92,0,0,0,139.09,10.36Z"/>
            <path d="M132.35,22.86a1.21,1.21,0,0,0-.21-.24,1.16,1.16,0,0,0-.41-.25,6,6,0,0,1-.58-.26,2.89,2.89,0,0,1-.42-.35.79.79,0,0,0-.59-.17,1.14,1.14,0,0,0-.65.29,1,1,0,0,0-.29.55l0,.05a1.78,1.78,0,0,0-.1.69c0,.16,0,.33,0,.5a6.18,6.18,0,0,0,0,1.14c.09.58.89.51,1.21.19l.1-.11A15.79,15.79,0,0,1,132,24a1,1,0,0,0,.36-.37.6.6,0,0,0,.08-.45A1.66,1.66,0,0,0,132.35,22.86Z"/>
        </g>
    </g>
</svg>
