<?xml version="1.0" encoding="utf-8"?>
<svg version="1.1" xmlns="http://www.w3.org/2000/svg" xmlns:xlink="http://www.w3.org/1999/xlink" x="0px" y="0px"
     viewBox="0 0 223 34" style="enable-background:new 0 0 223 34;" xml:space="preserve">
<style type="text/css">
	.st0{fill:#FFFFFF;}
	.st1{fill:#FFF500;}
	.st2{display:none;}
	.st3{fill:#B9B9B9;}
	.st4{display:inline;}
</style>
    <g id="Calque_34">
	<path class="st2" d="M168.7,6.2c-0.8-1.4-1.8-2.7-2.7-4.1c-0.8-1.2-1.7-2.4-3.3-2.3c-1.3,0.1-2.5,0.9-3.3,1.9
		c-0.7,0.6-1.3,1.5-1.8,2.3c-0.3,0.2-0.6,0.5-0.9,0.7c-0.5,0.4-0.4,1-0.2,1.3c-0.3,0.9,1.2,1.2,1.8,0.6c1-1,1.9-2,2.9-3
		c0,3,0,5.9-0.1,8.9c0,0.4,0.2,0.7,0.5,0.8c0,0,0,0,0,0c0,1.4,2.3,1,2.3-0.2c0-2.8,0-5.5,0-8.3c0.3,0.3,0.5,0.7,0.8,1
		c0.4,0.6,0.7,1.2,1,1.8c0.3,0.7,1.3,0.5,1.8,0C168.3,7.7,169.2,7,168.7,6.2z"/>
</g>
    <g id="Calque_3">
	<path d="M222.8,12.2c-0.9-4.8-4.9-7.4-9.4-8.6c-2.6-0.7-5.3-1-7.9-1.3c-3.1-0.4-6.3-0.7-9.5-0.9c-6.3-0.5-37.9-0.7-44.2-0.6
		c-3.1,0-6.1,0.1-9.2,0.3c-0.4,0-0.7,0.2-0.8,0.5c-23.2-1.6-78.9-2.1-107-0.8C24.2,1.2,11.6,1.1,4,9.6C0.9,13-0.6,17.5,0.2,22
		c0.9,4.8,4.5,7.9,9.2,9.3c5.7,1.6,12,2.3,18,2.6c6.3,0.3,51.3-0.1,57.6-0.7c12.8-1.3,25.5-1,38.4-0.6c13,0.4,51.2,0.7,64.3,0.9
		c5.9,0.1,12,0.6,17.9-0.5c5.1-1,9.6-3.4,12.9-7.3C221.5,22,223.7,17,222.8,12.2z M218.9,20.7c-2,4.3-5.8,7.8-10.3,9.4
		c-5.2,1.8-10.8,1.5-16.3,1.4c-12.1-0.2-49.5-0.5-61.6-0.9c-12-0.3-24-1.1-35.9-0.5c-6,0.3-50.7,1.2-56.7,1.5
		c-6,0.3-11.9-0.1-17.8-0.8c-2.7-0.4-5.4-0.8-8.1-1.3c-2.5-0.6-5.1-1.4-6.9-3.2c-3.1-3-3.5-8-1.9-11.8C7.5,4.4,20.5,3.5,29.8,3
		c24.3-1.2,87.4-0.6,111.7,0.3c3,0.1,5.9,0.2,8.9,0.3c0.6,0,1.2-0.5,1.3-1c8.9,0,43.1,0.5,52,1.7c4.4,0.6,9.7,0.9,13.4,3.8
		C221,11.2,220.8,16.5,218.9,20.7z"/>
        <g class="st2">
		<path class="st4" d="M202.3,22.4c-0.1-0.1-0.1-0.2-0.2-0.2c-0.1-0.1-0.3-0.2-0.4-0.3c-0.2-0.1-0.4-0.2-0.6-0.3
			c-0.2-0.1-0.3-0.2-0.4-0.4c-0.1-0.1-0.4-0.2-0.6-0.2c-0.2,0-0.5,0.1-0.6,0.3c-0.2,0.2-0.3,0.4-0.3,0.5c0,0,0,0,0,0.1
			c-0.1,0.2-0.1,0.5-0.1,0.7c0,0.2,0,0.3,0,0.5c0,0.4,0,0.8,0,1.1c0.1,0.6,0.9,0.5,1.2,0.2c0,0,0.1-0.1,0.1-0.1
			c0.5-0.3,1-0.7,1.6-0.9c0.2-0.1,0.3-0.2,0.4-0.4c0.1-0.1,0.1-0.3,0.1-0.4C202.4,22.6,202.4,22.5,202.3,22.4z"/>
            <path class="st4" d="M209.1,9.9c-0.4-0.4-1-0.5-1.6-0.4c-0.1,0-0.1-0.1-0.2-0.1c-0.5-0.2-1.2,0-1.5,0.5c-1.7,3.1-3.3,6.3-5.1,9.4
			c-0.2,0.3-0.3,0.7-0.1,1.1c0.2,0.3,0.6,0.5,0.9,0.6c0.8,0.3,1.6,0.5,2.3-0.2c0.6-0.6,1-1.4,1.4-2.2c0.4-0.7,0.9-1.5,1.3-2.3
			c1-1.7,1.9-3.5,2.7-5.4C209.4,10.5,209.3,10.2,209.1,9.9z"/>
	</g>
        <g id="Calque_37">
		<path d="M209.1,16.4c-1.2-1.6-2.4-3.2-3.6-4.9c-0.1-0.2-0.2-0.5-0.3-0.8c-0.4-1-1.8-0.7-2.2,0.1c-1.2,2.2-2.8,4.1-4.7,5.8
			c-0.4,0.4-0.5,1.1-0.1,1.5c0.4,0.4,1.1,0.4,1.6,0c1.1-0.8,2.2-1.7,3.1-2.8c0,0.2,0,0.4,0.1,0.6c0,0.3-0.1,0.5-0.1,0.8
			c-0.1,0.9-0.1,1.7-0.1,2.6c0,1.8,0.2,3.6,0.5,5.3c0,0.1,0,0.1,0.1,0.1c0,0,0,0,0,0.1c0,1.3,2,0.8,2-0.3c0,0,0-0.1,0-0.1
			c0.1-0.1,0.1-0.3,0.1-0.4c0-0.2,0-0.3,0-0.5c0.4-0.2,0.7-0.6,0.6-1.1c-0.3-1.2-0.5-2.4-0.6-3.6c0-0.5,0-1.1,0-1.6
			c0-0.2,0-0.3,0-0.5c0.1-0.2,0.2-0.4,0.2-0.7c0,0,0,0,0,0c0.4,0.6,0.9,1.1,1.4,1.6c0,0,0,0,0,0c0,0,0,0,0,0
			c0.1,0.1,0.1,0.1,0.2,0.2c0.4,0.4,1.3,0.1,1.6-0.2C209.1,17.5,209.4,16.8,209.1,16.4z"/>
	</g>
</g>
</svg>
