<svg xmlns="http://www.w3.org/2000/svg" width="74.11mm" height="4.88mm" viewBox="0 0 210.07 13.84"><g id="Paramètre"><g id="Calque_20" data-name="Calque 20"><path d="M208.26,2.25c-2.46-2-5.75-2.07-8.76-2L188.42.46,177.29.67a.89.89,0,0,0-.52.2C148.72.23,120.67.07,92.62,0,77.46,0,62.31.09,47.16.28q-11.49.13-23,.34c-3.83.06-7.66.14-11.49.22C10,.89,7.1.79,4.5,1.8c-2,.76-3.78,2.2-4,4.43s1.35,4,3.21,5c2.5,1.38,5.43,1.65,8.21,1.94,3.54.38,7.11.57,10.67.63,15,.27,29.9-1.47,44.85-2,30.29-1,60.59.35,90.87,1.23,7.62.22,15.24.42,22.86.53q5.7.09,11.42.12c3.57,0,7.36.35,10.89-.27,2.69-.46,5.34-1.82,6.55-4.39A5.63,5.63,0,0,0,208.26,2.25Zm-3.16,9c-3.14,1.23-7,.75-10.34.75-3.65,0-7.29,0-10.94-.06-7.12-.08-14.24-.24-21.36-.42C133.66,10.74,104.85,9.43,76,10c-7.2.14-14.39.39-21.58.8s-14.14,1-21.22,1.22a144.22,144.22,0,0,1-21.4-.57c-2.61-.3-5.45-.56-7.68-2.1C2.24,8,1.52,5.39,3.71,3.91S8.62,2.57,11,2.52l10.49-.21q11-.21,22-.35C58,1.78,72.46,1.72,87,1.65s29,0,43.46.13,29,.51,43.45.71q5.25.06,10.5.16a.9.9,0,0,0,.83-.49c4.55,0,9.11-.08,13.66-.08,3,0,6.59,0,8.61,2.65S207.78,10.18,205.1,11.23Z"/></g></g></svg>