<svg xmlns="http://www.w3.org/2000/svg" width="74.11mm" height="4.88mm" viewBox="0 0 210.07 13.84"><defs><style>.cls-1{fill:#fff500;}</style></defs><g id="Paramètre"><g id="Calque_20" data-name="Calque 20"><path class="cls-1" d="M208.26,2.25c-2.46-2-5.75-2.07-8.76-2L188.42.46,177.29.67a.89.89,0,0,0-.52.2C148.72.23,120.67.07,92.62,0,77.46,0,62.31.09,47.16.28q-11.49.13-23,.34c-3.83.06-7.66.14-11.49.22C10,.89,7.1.79,4.5,1.8c-2,.76-3.78,2.2-4,4.43s1.35,4,3.21,5c2.5,1.38,5.43,1.65,8.21,1.94,3.54.38,7.11.57,10.67.63,15,.27,29.9-1.47,44.85-2,30.29-1,60.59.35,90.87,1.23,7.62.22,15.24.42,22.86.53q5.7.09,11.42.12c3.57,0,7.36.35,10.89-.27,2.69-.46,5.34-1.82,6.55-4.39A5.63,5.63,0,0,0,208.26,2.25Z"/></g></g></svg>