<svg xmlns="http://www.w3.org/2000/svg" width="79.64mm" height="6.84mm" viewBox="0 0 225.76 19.4">
    <g id="Calque_13" data-name="Calque 13">
        <g id="Calque_17" data-name="Calque 17">
            <path d="M225.07,7.92a.63.63,0,0,0-.26-.35,6,6,0,0,0-4.27-5.84A19.41,19.41,0,0,0,214.1,1l-8,0q-16,.08-32,0C162.84,1,151.57,1,140.29.94A.86.86,0,0,0,140,.83a38.66,38.66,0,0,0-6.72,0c-2.32,0-4.65,0-7,.09-4.65.09-9.3.2-14,.41a1,1,0,0,0-.62.26C93.72,1.1,75.77.76,57.78.83,48.4.87,39,.92,29.64,1.08c-4.63.07-9.26.15-13.88.29-3.32.1-7,.54-9.31,3.14h0A7,7,0,0,0,0,11c-.1,3.63,2.4,6.12,5.77,7a32.31,32.31,0,0,0,6.28.63c2.22.11,4.44.16,6.66.17,2,0,3.91,0,5.87-.11,2.93.08,5.86.13,8.79.11,1.31,0,2.62,0,3.93-.09,3.27.09,6.54.14,9.82.09l1.52,0c3.21.22,6.42.29,9.63.24,2.37,0,4.74-.09,7.1-.16,1.46,0,3,0,4.48,0,6.79.3,13.6.31,20.4.2,4.13-.06,8.26-.13,12.4-.11s8.26.27,12.39.25a1,1,0,0,0,.57-.21c2.42.1,4.85,0,7.27,0,1.62,0,3.25-.05,4.87,0a27,27,0,0,0,4.22,0l3.25,0a20.72,20.72,0,0,0,4.59.05l.17-.05q8.37.09,16.75.1h5.16c1.64,0,3.28,0,4.92.08,3.37.12,6.78.31,10.15.13a1.3,1.3,0,0,0,.71-.31c7.06.08,14.12.14,21.17.23,4,.05,7.93,0,11.89.06,2,0,4,.1,6,0l.28,0a7.71,7.71,0,0,0,2.3-.08,8.15,8.15,0,0,0,4.19-2.29,8,8,0,0,0,2.1-4A9.52,9.52,0,0,0,225.07,7.92Zm-5.55,3.64a18.1,18.1,0,0,1-6.31.62c-5,0-10,0-15,0q-15.6-.06-31.2,0c-3.51-.17-7-.3-10.53-.42a.6.6,0,0,1-.31.09c-2.93.13-5.89,0-8.83,0l-2.15,0c-5.68.53-11.38.83-17.1,1-12.56.26-25.14.11-37.7,0q-9.5-.08-19-.11L62,12.6c-3.11,0-6.22.05-9.33,0q-9.91.24-19.83.43c-4.45.09-8.9.16-13.35.18a35.79,35.79,0,0,1-6.21-.38c-1.87-.31-4.11-.88-5.47-2.3a3.56,3.56,0,0,1,.1-4.74C9.1,4.2,11.11,3.72,13,3.52c4.27-.45,8.66-.28,13-.36,9-.18,17.94-.34,26.91-.38,18-.08,36.05.07,54.08.28,2.24,0,4.48.09,6.72.14a.86.86,0,0,0,.65-.26c3.85-.13,7.7-.26,11.55-.32,2.24,0,4.49-.05,6.73-.09,1.81,0,3.72.18,5.56.1,19.68.06,39.37-.15,59.05,0q7.5.08,15,.11c3.38,0,10-.38,10.6,4.34C223,9.16,221.32,10.9,219.52,11.56Z"/>
        </g>
    </g>
</svg>
