<?xml version="1.0" encoding="utf-8"?>
<!-- Generator: Adobe Illustrator 25.2.3, SVG Export Plug-In . SVG Version: 6.00 Build 0)  -->
<svg version="1.1" xmlns="http://www.w3.org/2000/svg" xmlns:xlink="http://www.w3.org/1999/xlink" x="0px" y="0px"
	 viewBox="0 0 212.5 59.1" style="enable-background:new 0 0 212.5 59.1;" xml:space="preserve">
<style type="text/css">
	.st0{fill:#FFFFFF;}
	.st1{fill:#FFF500;}
	.st2{display:none;}
	.st3{fill:#B9B9B9;}
	.st4{display:inline;}
</style>
<g id="Login">
	<g id="Calque_1">
	</g>
	<g id="Calque_2">
	</g>
	<g id="Calque_4">
	</g>
</g>
<g id="Le_saviez-vous">
	<g id="Calque_8">
	</g>
	<g id="Calque_9">
	</g>
</g>
<g id="Règles">
	<g id="Calque_11">
	</g>
	<g id="Calque_12">
	</g>
</g>
<g id="Jeu">
	<g id="Calque_14">
	</g>
	<g id="Calque_15">
	</g>
	<g id="Calque_16">
	</g>
	<g id="Calque_17">
	</g>
	<g id="Calque_24">
		<g id="Calque_18">
		</g>
	</g>
</g>
<g id="Paramètre">
	<g id="Calque_21">
	</g>
	<g id="Calque_20">
	</g>
	<g id="Calque_22">
	</g>
</g>
<g id="Omg">
	<g id="Calque_25">
		<g id="Calque_26">
		</g>
	</g>
</g>
<g id="Devine_qui">
	<g id="Calque_28">
	</g>
	<g id="Calque_29">
	</g>
</g>
<g id="Calque_30">
	<g id="Calque_33">
		<g id="Calque_32">
		</g>
		<g id="Calque_31">
		</g>
	</g>
</g>
<g id="Calque_35" class="st2">
</g>
<g id="Calque_34">
</g>
<g id="Calque_36">
</g>
<g id="Calque_3">
	<g id="Calque_37">
	</g>
</g>
<g id="Calque_38" class="st2">
	
		<image style="display:inline;overflow:visible;opacity:0.4784;" width="390" height="844" xlink:href="999E4AF5AB7F5FC3.png"  transform="matrix(0.6273 0 0 0.6273 -0.116 -287.6608)">
	</image>
</g>
<g id="Calque_39">
	<path d="M211,17c-2.2-5.8-6.6-9.8-12.3-12.1c-6.4-2.6-13.7-3.2-20.6-3.8c-7.7-0.7-15.3-0.9-23-1c-15.7-0.2-31.4,0.2-47.2,0.3
		C76.3,0.4,44.7,0.5,13.1,0.7c-2.8,0-8.6,0-13.1,0v3.2c29.9-0.1,64.6-0.2,93.9-0.3c15.5-0.1,30.9,0,46.4,0c15,0,30.1,0,45.1,2
		c6,0.8,12.8,1.9,17.5,6.1c4,3.5,5.9,8.8,5.9,14.1c-0.1,11.9-9.5,20.9-19.9,25c-6.6,2.6-13.7,3.7-20.7,4.2
		c-7.2,0.5-14.4,0.5-21.6,0.4c-15.3-0.1-30.6-0.5-46-0.7c-30.8-0.3-61.6-0.9-92.4-1.2c-2.7,0-5.4-0.1-8.1-0.2v3.5
		c14.7,0,29.4,0.4,44.1,0.7c15.8,0.2,31.6,0.3,47.5,0.5c15.8,0.3,31.6,0.4,47.5,0.6c14.8,0.2,30.2,1.7,44.6-2.4
		c11.7-3.3,23.6-10.6,27.6-22.7C212.9,28.3,213,22.2,211,17z"/>
</g>
<g id="Calque_40" class="st2">
	<g id="Calque_41" class="st4">
		<path class="st0" d="M162.2,29.3c-0.9-5.6-2.8-11.5-6-16.3c-4.5-6.8-10.7-11.9-17.8-15.6c-0.9-0.9-1.9-1.7-3.2-2.4
			c-5-2.8-9.6-3.2-15.2-2.2c-2.5,0.5-4.5,1.5-6,3c-0.2,0.1-0.5,0.2-0.7,0.3c-0.9,0.3-1.8,0.7-2.6,1.1c-0.2-0.1-0.5-0.2-0.8-0.2
			c-3.2,0.2-5.6,2.3-7.9,4.3c-2.3,2-4.6,4-6.7,6.2c-4.1,4.3-7.6,9.3-8.9,15.2c-0.3,1.2,0.7,2.1,1.7,2.2c-0.6,3.6-0.2,7,0.3,10.5
			c0,0.4,0,0.7-0.1,1.1c0,0.1,0,0.2,0,0.3c0,0.2,0,0.3,0,0.5c0,0.3,0,0.7,0,1c0.2,6.5,3,12.3,7.6,17.5c2.3,2.6,5.2,4.8,8.3,6.3
			c2.1,1,4,1.5,6.1,1.7c0,0,0.1,0,0.1,0c0.6,0.3,1.2,0.6,1.8,0.9c5.4,2.1,10.9,2.1,16.5,0.8c2.6-0.6,5.3-1.5,7.8-2.6
			c3.8,0.1,7.6-1.2,10.4-4.6c1.6-1.8,3.1-3.7,4.6-5.6c1.1-0.7,2.1-1.4,3-2.3c1.1-1.1,2-2.4,2.7-3.8c0.6-0.5,1.1-1,1.5-1.7
			c1.3-1.6,2.3-3.3,3-5.3C162.9,36.1,162.8,32.8,162.2,29.3z"/>
	</g>
	<path class="st4" d="M160.9,15.5c-3.8-7.1-9.7-13.4-16.3-18.1c-6.9-4.9-15.4-7.8-24-6.9c-2.2,0.2-4.2,0.7-6.3,1.5
		c-0.3,0.1-0.6,0.3-0.8,0.6c-5.1,1.9-9.9,4.6-14.1,8.1c-6,4.9-11.3,11.5-13.8,18.9c-1.4,4.3-1.5,8.8-1,13.3c0.4,4.1,0.9,8.3,2,12.3
		c1,3.8,2.7,7.4,5.4,10.3c2.9,3.1,6.6,5.5,10.3,7.5c7.5,4.3,15.8,6.4,24.5,5.3c8.2-1.1,16.4-4.8,23-9.8c6.5-5,11.2-11.4,13.7-19.2
		C166,31.4,164.9,22.9,160.9,15.5z M161.1,33.3c-0.7,7.5-4.5,14.2-9.8,19.4c-10.8,10.6-28.1,16.2-42.4,10c-3.6-1.6-7-3.6-10.1-5.9
		c-3.1-2.2-5.6-4.8-7.2-8.3c-1.5-3.2-2.2-6.8-2.7-10.3c-0.6-4.1-1.4-8.3-1.2-12.4c0.5-7.5,5.3-14.4,10.5-19.5
		c4.9-4.8,10.9-8.6,17.4-10.9c0.2-0.1,0.5-0.1,0.7-0.2c7.4-1.9,15.1-0.9,21.9,2.7c6.5,3.4,12.2,8.7,16.5,14.6
		C159.1,18.6,161.9,25.7,161.1,33.3z"/>
</g>
</svg>
