<svg xmlns="http://www.w3.org/2000/svg" width="6.06mm" height="6.06mm" viewBox="0 0 17.19 17.19">
    <defs>
        <style>.cls-1{fill:#fff;}</style>
    </defs>
    <g id="Le_saviez-vous" data-name="Le saviez-vous">
        <g id="Calque_9" data-name="Calque 9">
            <path d="M17,8.29c-.43-.37-.87-.74-1.29-1.13-.21-.19-.41-.39-.62-.6L15,6.4c0-.11,0-.22,0-.32,0-.33,0-.65,0-1,0-.63,0-1.27,0-1.9,0-.32,0-.69-.29-.87s-.71,0-1,.05l-1.43.32L11,2.74l-.21-.31c-.21-.26-.43-.5-.66-.74A6.9,6.9,0,0,1,8.94.25a.51.51,0,0,0-.88,0c-.36.49-.7,1-1,1.53a.37.37,0,0,0-.14.14c-.21.35-.45.68-.68,1H5.52c-.71,0-1.42,0-2.14,0-.4,0-.87,0-1,.44a1.65,1.65,0,0,0,.05.82c0,.71.17,1.44.24,2.14v.2c-.28.29-.57.59-.86.87L1,8.13a5.82,5.82,0,0,1-.78.71.52.52,0,0,0-.14.69A.57.57,0,0,0,.34,10c.56.34,1.11.69,1.68,1l.84.46.14.08c0,.48.08,1,.11,1.45s0,.85-.1,1.27a.35.35,0,0,0,0,.18c-.07.3.23.66.55.53a4.44,4.44,0,0,1,1.84-.28,8.86,8.86,0,0,1,1,.12l.12,0c.29.34.58.69.88,1s.7.84,1.09,1.2a.54.54,0,0,0,.83-.1,10.07,10.07,0,0,1,.86-1.17,7,7,0,0,1,.54-.55l.31-.28h.15c.22,0,.44,0,.65-.06l.53,0c.75,0,1.5,0,2.24,0a.49.49,0,0,0,.48-.48c0-.69,0-1.37,0-2.06,0-.53-.07-1.07-.12-1.6l.47-.41.7-.59c.24-.2.49-.39.71-.61l.05,0A.51.51,0,0,0,17,8.29Z"/>
            <circle class="cls-1" cx="8.59" cy="8.6" r="4.25"/>
        </g>
    </g>
</svg>
