<svg xmlns="http://www.w3.org/2000/svg" width="14.79mm" height="14.06mm" viewBox="0 0 41.94 39.87"><g id="Omg"><g id="Calque_25" data-name="Calque 25"><path d="M40.5,11.71C36.64,1.86,24.57-2.13,15,1.1a1.43,1.43,0,0,0-.68.47A21,21,0,0,0,.47,16.31c-1.89,8.09,2.08,17.37,9.4,21.38S26.77,39.77,33.28,35A21.76,21.76,0,0,0,41.2,24.24,19.32,19.32,0,0,0,40.5,11.71Zm-.84,9.45A17.81,17.81,0,0,1,34,31.69c-5.2,4.95-13.11,7.53-20.09,5.2A17.52,17.52,0,0,1,2.31,19.59C2.76,11,9.84,3.74,18.34,2.66a1.26,1.26,0,0,0,.44-.14c6.82-.74,13.91,1.7,17.86,7.62A16.52,16.52,0,0,1,39.66,21.16Z"/><path d="M27.78,17.47a14.63,14.63,0,0,0-1.89-2.21c-.64-.74-1.28-1.48-1.93-2.21s-1.33-1.45-2-2.17a3.73,3.73,0,0,0-1.92-1.29c-1.83-.4-3.13,1.19-4.24,2.37l-4,4.29c-.41.44-.7,1.16-.16,1.63a1.43,1.43,0,0,0,1.83-.18c1.08-1.17,2.15-2.34,3.23-3.5l1.17-1.27c0,2.46-.08,4.92-.07,7.38,0,2.92.13,5.84.22,8.75.05,1.46,2.37,1,2.33-.2-.07-2.92-.06-5.84-.06-8.76,0-2.38,0-4.77,0-7.15l.36.41c.57.62,1.13,1.24,1.72,1.85s1.09,1.14,1.65,1.71A13.37,13.37,0,0,0,26,18.81C26.75,19.36,28.36,18.51,27.78,17.47Z"/></g></g></svg>