<svg xmlns="http://www.w3.org/2000/svg" xmlns:xlink="http://www.w3.org/1999/xlink" width="20" height="20" viewBox="0 0 20 20">
  <defs>
    <clipPath id="clip-Plan_de_travail_2">
      <rect width="20" height="20"/>
    </clipPath>
  </defs>
  <g id="Plan_de_travail_2" data-name="Plan de travail – 2" clip-path="url(#clip-Plan_de_travail_2)">
    <rect width="20" height="20" fill="#fff"/>
    <path id="Tracé_3151" data-name="Tracé 3151" d="M104.891,473.778c-3.487-1.264-7.986.151-9.755,3.5a3.694,3.694,0,0,0-1.228,2.884,3.872,3.872,0,0,0,.584,1.946,7.724,7.724,0,0,0,.886,5.351,7.323,7.323,0,0,0,8.865,2.874,8.891,8.891,0,0,0,5.947-8.085A8.513,8.513,0,0,0,104.891,473.778Zm1.115,12.712c-1.883,1.9-5.311,2.815-7.6,1.069a5.09,5.09,0,0,1-1.853-4.4,1,1,0,0,0,.436-1.6,3.912,3.912,0,0,1,.957-1.3,1.008,1.008,0,0,0-.461-1.738,5.96,5.96,0,0,1,.973-1.185,5.343,5.343,0,0,1,1.554-.891,6,6,0,0,1,3.838-.119,5.426,5.426,0,0,1,2.907,2.354A6.481,6.481,0,0,1,106.006,486.49Z" transform="translate(-92.051 -472.064)"/>
  </g>
</svg>
